<?xml version="1.0" encoding="utf-8"?>
<!-- Generator: Adobe Illustrator 17.1.0, SVG Export Plug-In . SVG Version: 6.00 Build 0)  -->
<!DOCTYPE svg PUBLIC "-//W3C//DTD SVG 1.1//EN" "http://www.w3.org/Graphics/SVG/1.1/DTD/svg11.dtd">
<svg version="1.1" id="Layer_1" xmlns="http://www.w3.org/2000/svg" xmlns:xlink="http://www.w3.org/1999/xlink" x="0px" y="0px"
	 viewBox="0 0 50 50" enable-background="new 0 0 50 50" xml:space="preserve">
<circle fill="#1BB2E7" cx="25" cy="25" r="25"/>
<path fill="#FFFFFF" d="M40.6,15.3c-1,0.4-2.1,0.8-3.2,0.8c1.6-1.6,2.3-2.6,2.3-3.3c0,0-0.1,0-0.1,0c-0.1,0-0.2,0.1-0.3,0.1
	c-1.1,0.4-2.1,0.8-3.2,1.2c-0.3,0.1-0.4,0-0.6-0.2c-3.3-3.2-8.9-1.9-10.5,2.4c-0.5,1.2-0.5,2.4-0.3,3.7c-5.4-0.4-9.8-2.6-13.3-6.7
	c-0.7,1.3-1,2.6-0.8,4c0.2,1.9,1.1,3.4,2.7,4.6c-1.1,0-2-0.4-2.9-0.8c0.2,3.3,1.9,5.4,5,6.4c0,0,0,0.1,0,0.1c-0.9,0-1.7,0-2.6,0
	c1.1,2.7,3,4.2,5.9,4.5c-0.1,0.1-0.1,0.1-0.1,0.1c-1.8,1.3-3.8,2.2-6,2.4c-1,0.1-2.1,0.1-3.2,0.1C9.4,35,9.5,35,9.6,35.1
	c4.8,2.8,9.8,3.4,15.1,1.8c8.3-2.5,12.7-10.4,12.7-17.3c0-0.7,0.1-1.3,0.8-1.7c0.1-0.1,0.3-0.2,0.4-0.3c0.7-0.7,1.4-1.5,2-2.2
	C40.6,15.4,40.6,15.3,40.6,15.3z"/>
</svg>
